# xmcd
#
# Track frame offsets: 
#        150
#        23788
#        34440
#        46285
#        65533
#        79335
#        97176
#        111008
#        130216
#        143868
#        166303
#        180908
#        194003
#        207361
#        218908
#        239007
#        260428
#        280835
#        298336
#        312838
#
# Disc length: 4426 seconds
#
# Revision: 0
# Processed by: cddbd v1.5.2PL0 Copyright (c) Steve Scherf et al.
# Submitted via: ExactAudioCopy v0.99pb5
#
DISCID=3b114814
DTITLE=Various Artist - The Best collection of Country and Folk Songs
DYEAR=2000
DGENRE=Country
TTITLE0=Ave Maria (The Wedding)-Julie Roger
TTITLE1=All I Have to Do is Dream-The Everly Brothers
TTITLE2=The End of the World-Sketter Davis
TTITLE3=How Can I Tell Her-Lobo
TTITLE4=Green Field-The Brother Four
TTITLE5=Yesterday Once More-Carpenters
TTITLE6=Sound of Silence-Paul Simon and Gafunkel
TTITLE7=Summer Wine-Nacy Sinatra and Lee Hazlewood
TTITLE8=Imagine-John Lennon
TTITLE9=Those were the Days-Mary Hopkin
TTITLE10=Papa-Paul Anka
TTITLE11=Hollidays-Bee Gees
TTITLE12=Beautiful Sunday-Daniel Boone
TTITLE13=If-Bread
TTITLE14=The House of Rising Sun-The Animals
TTITLE15=Killing Me Softly-Robert Flack
TTITLE16=Angie-The Rolling Stone
TTITLE17=Never Been to Me
TTITLE18=San Sung Blue-Neil Diamond
TTITLE19=He Ain't Heaven, He's My Brother-The Hollies
EXTD=
EXTT0=
EXTT1=
EXTT2=
EXTT3=
EXTT4=
EXTT5=
EXTT6=
EXTT7=
EXTT8=
EXTT9=
EXTT10=
EXTT11=
EXTT12=
EXTT13=
EXTT14=
EXTT15=
EXTT16=
EXTT17=
EXTT18=
EXTT19=
PLAYORDER=
